# xmcd
# Track frame offsets:
# 150
# 17835
# 34028
# 53946
# 76691
# 94142
# 112379
# 133655
#
# Disc length: 2006 seconds
# Revision: 0
# Processed by: cddbd v1.5PL3 Copyright (c) Steve Scherf et al.
# Submitted via: VisiTrax 2.9.7.197 - For more info visit www.synapsa.com
#
DISCID=6507d408
DTITLE=Kenny Edwards - I Need A Woman With Some Food Stamps
DYEAR=2003
DGENRE=Blues
TTITLE0=Let's Buss It Baby
TTITLE1=I Need A Woman With Some Food Stamps
TTITLE2=Bring Some To Get Some
TTITLE3=Sometime I Wanna Be True
TTITLE4=You're More Than Enough For Me
TTITLE5=Let's Buss It Baby (Remix}
TTITLE6=Bring Some To Get Some (Remix)
TTITLE7=I Need Me A Woman With Some Food Stamps
EXTD=
EXTT0=
EXTT1=
EXTT2=
EXTT3=
EXTT4=
EXTT5=
EXTT6=
EXTT7=
PLAYORDER=
